<?xml version="1.0" encoding="utf-8"?>
<!-- Generator: Adobe Illustrator 25.0.0, SVG Export Plug-In . SVG Version: 6.00 Build 0)  -->
<svg version="1.1" id="Layer_1" xmlns="http://www.w3.org/2000/svg" xmlns:xlink="http://www.w3.org/1999/xlink" x="0px" y="0px"
	 viewBox="0 0 1920 1080" style="enable-background:new 0 0 1920 1080;" xml:space="preserve">
<style type="text/css">
	.st0{fill:none;stroke:#000000;stroke-miterlimit:10;}
</style>
<path class="st0" d="M704.9,500.4c2.7-10,16.3-13.8,25.5-9.1c9.2,4.7,14.1,15.3,15.4,25.5c1.3,10.2-0.2,20.6-0.5,30.9
	c-0.3,10.3,1,21.3,7.2,29.6c-0.5-25.4-0.9-50.8-1.4-76.3c16.4,7.8,37,15.2,51.4,4.2c10.2-7.8,12.9-22.1,12.5-34.9s-2.9-25.9,0-38.4
	c16.5,65.5,32.9,131.1,49.4,196.6c-2.6,0.6-5.3,1.2-7.9,1.8c-10.1,3.3-13.5,17.5-7.8,26.4c5.7,8.9,17.7,12.3,28.1,10.4
	c10.4-1.9,19.5-8.2,27.5-15.2c48.9-43,63.5-120.4,33.4-178.2c-3.1-6-7-12.1-13-15.1c-9.7-4.8-22.8,1-26.8,11.1s0.8,22.5,9.9,28.5
	c8.9,5.8,21.7,5.5,29.5-1.6c-7,22.7-14,46-12.4,69.7c1.6,23.7,13.6,48.2,35.4,57.8c15.2,6.7,33,5.2,48.6-0.5
	c15.6-5.7,29.5-15.2,43.2-24.6c2,2.2,4,4.4,6,6.6c-11.2-34.8-22.3-69.7-33.5-104.5c-3.5-11-7-23.3-2-33.7
	c4.1-8.5,13.3-13.8,22.6-15.5c9.3-1.8,18.9-0.6,28.3,0.5c-9.5,19.4-19,38.9-28.5,58.3c7.6-2.1,15.1-4.2,22.7-6.2
	c1,13.5,2.1,26.9,3.1,40.4c18.9-20.6,33.1-45.5,41.3-72.3c6.7,33.2,13.5,66.4,20.2,99.6c16.6-53.4,33.2-106.9,49.8-160.3
	c20.3,72.2,40.6,144.3,60.8,216.5"/>
</svg>
